<svg width="1300" height="49" viewBox="0 0 1300 49" fill="none" xmlns="http://www.w3.org/2000/svg">
<path d="M-4 34.8707L613.489 32.281C614.088 32.281 614.641 32.6242 614.902 33.1702L617.559 38.568C618.235 39.9408 620.232 39.66 620.523 38.1624L623.242 23.9972C623.58 22.2656 626.007 22.2656 626.345 23.9972L630.461 45.6973C630.799 47.4446 633.257 47.429 633.564 45.6817L636.067 31.501C636.328 30.019 638.294 29.6914 639.001 31.0174C639.723 32.3434 641.674 32.0158 641.935 30.5182L646.65 3.32675C646.973 1.45471 649.66 1.61071 649.783 3.49836L651.811 34.4807C651.934 36.2435 654.345 36.5555 654.883 34.8707L661.395 14.5122C661.917 12.8898 664.237 13.1082 664.467 14.793L668.276 44.0749C668.507 45.8845 671.071 45.9469 671.394 44.1529L675.833 19.6135C676.156 17.8663 678.598 17.8507 678.936 19.5979L682.238 36.8519C682.545 38.4588 684.757 38.6148 685.279 37.0703L688.95 26.1345C689.411 24.7461 691.315 24.6681 691.899 26.0097L694.172 31.3138C694.418 31.9066 694.986 32.281 695.616 32.281L1303 33.1702" stroke="url(#paint0_linear)" stroke-width="3" stroke-miterlimit="10"/>
<defs>
<linearGradient id="paint0_linear" x1="754.877" y1="46.9999" x2="566.361" y2="46.9999" gradientUnits="userSpaceOnUse">
<stop stop-color="#DABC83"/>
<stop offset="1" stop-color="#DABCD3"/>
</linearGradient>
</defs>
</svg>
