<?xml version="1.0" encoding="utf-8"?>
<!-- Generator: Adobe Illustrator 23.0.1, SVG Export Plug-In . SVG Version: 6.00 Build 0)  -->
<svg version="1.1" id="Layer_1" xmlns="http://www.w3.org/2000/svg" xmlns:xlink="http://www.w3.org/1999/xlink" x="0px" y="0px"
	 viewBox="0 0 612 68.51" style="enable-background:new 0 0 612 68.51;" xml:space="preserve">
<style type="text/css">
	.st0{fill:#23B1D1;}
	.st1{fill:#D9BB85;}
	.st2{fill:url(#SVGID_1_);}
	.st3{fill:#D9BDD1;}
	.st4{fill:url(#SVGID_2_);}
	.st5{opacity:0.65;fill:none;stroke:#FFFFFF;stroke-width:0.5;stroke-miterlimit:10;}
</style>
<g>
	<path class="st0" d="M0,0v13c0,0,10.43,8.53,30.07,16.5C22.12,14.7,19,0,19,0H0z"/>
	<path class="st0" d="M323.8,57.32c10.34,2.67,21.68,4.35,34.54,4.35c48.15,0,70.27-18.4,96.57-32.1
		C444.38,28.01,430.82,27,412.33,27C380.46,27,354.35,45.35,323.8,57.32z"/>
	<path class="st0" d="M110.81,42.87c50.3-1.59,59.05-16.71,93.43-20.16c-8.06-5.02-18.92-8.37-35.24-8.37
		C139.64,14.33,125.91,29.96,110.81,42.87z"/>
	<path class="st0" d="M596.3,18.3c-4.09,3.79-8.99,7.74-14.7,11.44C601.89,39.3,612,50,612,50V0C612,0,606.8,8.58,596.3,18.3z"/>
	<path class="st1" d="M30.07,29.5C38.14,44.53,51.19,59.67,71,59.67c17.89,0,29.19-7.73,39.81-16.8c-2.8,0.09-5.74,0.13-8.81,0.13
		C71.5,43,47.26,36.47,30.07,29.5z"/>
	<path class="st1" d="M204.24,22.7c22.23,13.83,23.19,40.33,58.76,44.07c23.21,2.45,42.78-2.4,60.8-9.45
		C283.85,47.03,258.8,22,219.08,22C213.6,22,208.71,22.25,204.24,22.7z"/>
	<path class="st1" d="M454.91,29.57c34.66,5.12,36.45,16.1,72.74,16.1c22.55,0,40.5-7.23,53.95-15.93C565.19,22,542.14,15,512.33,15
		C487.54,15,470.49,21.46,454.91,29.57z"/>
	<linearGradient id="SVGID_1_" gradientUnits="userSpaceOnUse" x1="-9.094947e-13" y1="28.6604" x2="612" y2="28.6604">
		<stop  offset="0" style="stop-color:#83C4A2"/>
		<stop  offset="1" style="stop-color:#13B1D3"/>
	</linearGradient>
	<path class="st2" d="M612,0H19c0,0,3.12,14.7,11.07,29.5C47.26,36.47,71.5,43,102,43c3.07,0,6.01-0.05,8.81-0.13
		c15.1-12.9,28.83-28.53,58.19-28.53c16.32,0,27.18,3.35,35.24,8.37c4.47-0.45,9.36-0.7,14.84-0.7c39.72,0,64.77,25.03,104.72,35.32
		C354.35,45.35,380.46,27,412.33,27c18.48,0,32.04,1.01,42.57,2.57C470.49,21.46,487.54,15,512.33,15c29.81,0,52.86,7,69.27,14.73
		c5.71-3.69,10.61-7.65,14.7-11.44C606.8,8.58,612,0,612,0z"/>
	<path class="st3" d="M612,0H19c0,0,3.12,14.7,11.07,29.5C47.26,36.47,71.5,43,102,43c3.07,0,6.01-0.05,8.81-0.13
		c15.1-12.9,28.83-28.53,58.19-28.53c16.32,0,27.18,3.35,35.24,8.37c4.47-0.45,9.36-0.7,14.84-0.7c39.72,0,64.77,25.03,104.72,35.32
		C354.35,45.35,380.46,27,412.33,27c18.48,0,32.04,1.01,42.57,2.57C470.49,21.46,487.54,15,512.33,15c29.81,0,52.86,7,69.27,14.73
		c5.71-3.69,10.61-7.65,14.7-11.44C606.8,8.58,612,0,612,0z"/>
</g>
<linearGradient id="SVGID_2_" gradientUnits="userSpaceOnUse" x1="0" y1="217.1859" x2="612" y2="217.1859">
	<stop  offset="0" style="stop-color:#83C4A2"/>
	<stop  offset="1" style="stop-color:#13B1D3"/>
</linearGradient>
<path class="st4" d="M0,199.35c0,0,36.63,30,102,30s67.08-21,117.08-21s76.75,39.67,139.25,39.67c76.67,0,87.33-46.67,154-46.67
	s99.67,35,99.67,35v-50H0V199.35z"/>
<image style="overflow:visible;" width="468" height="330" xlink:href="../../../Screen Shot 2019-02-16 at 12.29.54 PM.png"  transform="matrix(0.5 0 0 0.5 144.7421 -183.407)">
</image>
<image style="overflow:visible;" width="1394" height="212" xlink:href="../../../Screen Shot 2019-02-16 at 12.32.52 PM.png"  transform="matrix(0.5 0 0 0.5 -51 -223.5652)">
</image>
<path class="st5" d="M6.86,0.01c0,0,12.55,59.26,51.88,59.26c43.33,0,48-45.33,98-45.33c61.33,0,45.53,47.33,94,52.44
	c62.58,6.6,98.67-39.78,149.33-39.78c79.33,0,68,18.67,115.32,18.67c32.12,0,54.92-14.66,68.65-27.37
	c10.5-9.72,15.43-17.81,15.43-17.81"/>
</svg>
