<svg width="1300" height="136" viewBox="0 0 1300 136" fill="none" xmlns="http://www.w3.org/2000/svg">
<path d="M1315.62 109.423C1315.62 107.929 1314.98 106.542 1313.79 105.639C1301.17 96.0614 1223.45 41.4292 1093.68 41.4292C951.447 41.4292 947.726 87.3733 838.934 87.3733C730.141 87.3733 671.938 0.582757 535.947 0.582769C369.125 0.582783 345.93 102.688 200.867 102.688C85.8717 102.688 16.9143 54.5689 -6.73197 34.6206C-10.1963 31.6981 -16 34.2241 -16 38.7565L-16 130.505C-16 133.267 -13.7614 135.505 -11 135.505L1310.62 135.505C1313.38 135.505 1315.62 133.267 1315.62 130.505L1315.62 109.423Z" fill="#152D42"/>
</svg>
